<svg viewBox="0 0 53 48" width="100%" height="100%" xmlns="http://www.w3.org/2000/svg" color='#222222'>
    <path
        opacity="0.995"
        fill-rule="evenodd"
        clip-rule="evenodd"
        d="M53 37.6491C52.7309 40.6652 52.6409 43.7301 52.7296 46.843C47.2314 46.843 41.7329 46.843 36.2347 46.843C36.0733 46.7794 35.9832 46.6442 35.9643 46.4374C36.815 42.3764 37.1303 38.2751 36.9107 34.1338C36.5451 31.3034 36.0043 28.5093 35.2883 25.7512C35.0884 25.4607 34.818 25.2804 34.477 25.2103C32.5333 25.6944 30.5953 26.1449 28.6633 26.5624C29.2985 28.5291 29.6589 30.5571 29.7449 32.6466C29.7387 33.4375 29.6035 34.2038 29.3393 34.945C25.9692 39.3067 22.1383 43.2276 17.8469 46.7078C14.8008 47.0144 11.736 47.1496 8.65307 47.1134C5.79369 47.1118 2.9544 47.0217 0.135211 46.843C-0.0450703 41.0744 -0.0450703 35.3055 0.135211 29.5369C0.450696 29.2213 0.766154 28.906 1.08164 28.5904C5.06791 27.1835 8.5833 25.0202 11.6276 22.1006C13.7908 22.0106 15.9541 21.9203 18.1173 21.8302C18.2977 21.6499 18.4778 21.4698 18.6582 21.2894C16.8673 16.2604 16.2816 11.0775 16.9005 5.74096C17.2142 4.03523 17.4846 2.32273 17.7117 0.603206C20.7527 0.0717459 23.8624 -0.108535 27.0408 0.0623897C26.5887 1.59747 26.093 3.1299 25.5536 4.65933C25.3075 5.83885 25.1271 7.0108 25.0128 8.17463C27.3185 5.14768 29.9777 2.48876 32.9898 0.197594C37.0489 -0.0276021 41.105 0.0174479 45.1582 0.332798C42.8191 5.39565 41.6923 10.7135 41.7781 16.2869C41.9544 16.888 42.36 17.2036 42.9949 17.2333C46.3653 17.5224 49.7005 18.0183 53 18.7205C53 21.8754 53 25.03 53 28.1848C50.3738 27.5053 47.76 26.7392 45.1582 25.8864C44.5273 25.706 43.8962 25.706 43.2653 25.8864C43.9941 28.8617 44.5349 31.881 44.8878 34.945C47.7443 35.4767 50.4484 36.3779 53 37.6491ZM28.6633 26.5624C26.9213 23.2499 25.6144 19.7346 24.7423 16.0165C24.562 14.6644 24.562 13.3124 24.7423 11.9603C27.0879 11.3235 29.4764 10.8728 31.9082 10.6083C31.9836 13.3154 32.0288 16.0194 32.0434 18.7205C30.3263 21.0739 29.1995 23.6877 28.6633 26.5624ZM20.0102 28.9961C20.5421 28.9314 21.038 29.0215 21.4975 29.2665C21.8674 31.6001 21.9577 33.9437 21.7679 36.2971C18.7163 36.8533 15.6518 37.3041 12.574 37.6491C12.8444 35.1276 12.9344 32.6038 12.8444 30.0777C15.2956 29.969 17.6842 29.6083 20.0102 28.9961Z"
        fill="currentColor"
    />
</svg>