<svg viewBox="0 0 1280 1024" width="100%" height="100%" xmlns="http://www.w3.org/2000/svg" color='#222222'>
    <path fill-rule="evenodd" fill="currentColor" transform="translate(420,10)" d="m0 0h173l2 2v106l5-3 17-16 12-11 8-7 12-11 26-24 8-7 10-9 13-12 10-8h200l26 1v316h153v160h-113l-39 1-1 156h153v159h-327v-316h-173v118l-1 21-9 9-8 7-15 14-8 7-17 16-8 7-16 15h-2v2l-8 7-13 12-10 9-15 14h-2v2l-8 7-13 12-10 9-14 13-8 7-9 8-328 1-2-1v-300l11-9 15-14 8-7 12-11 10-9 12-11 8-7 10-9 13-12 8-7 12-11 8-7 13-12 12-11 8-7 10-9 13-12 8-7 5-4h151v-313zm176 160-1 1-1 17v294l2 2 7-7 8-7 10-9 11-10 8-7 16-15 20-18 8-7 16-15 20-18 8-7 15-14 10-8v-2l4-2 9-8v-160zm-349 317-1 29v128h172v-157z"/>
</svg>